<svg xmlns="http://www.w3.org/2000/svg" viewBox="0 0 1000 1000">
  <circle r="35" cx="433.42139799565166" cy="841.481547632772" fill="rgba(20,25,6,253)" />
  <circle r="35" cx="818.6660532253106" cy="765.3650093300915" fill="rgba(20,25,6,254)" />
  <circle r="35" cx="387.0199338073234" cy="217.50018519764112" fill="rgba(151,148,180,253)" />
  <circle r="35" cx="482.8554343086305" cy="507.536450704527" fill="rgba(229,157,144,255)" />
  <circle r="35" cx="467.32011973462744" cy="400.4829013971661" fill="rgba(206,154,151,255)" />
  <circle r="35" cx="128.51085723448386" cy="750.6126675387889" fill="rgba(8,5,0,254)" />
  <circle r="35" cx="708.0613876171711" cy="447.7316581768244" fill="rgba(255,187,117,254)" />
  <circle r="35" cx="127.14482601049649" cy="319.1762457964872" fill="rgba(151,148,180,253)" />
  <circle r="35" cx="593.4449341339184" cy="505.15668045142985" fill="rgba(255,187,117,255)" />
  <circle r="35" cx="765.4874477648145" cy="526.3803669735689" fill="rgba(255,187,117,254)" />
  <circle r="35" cx="467.38602108781953" cy="931.7267878031728" fill="rgba(20,25,6,252)" />
  <circle r="35" cx="354.7703842553674" cy="819.0455280183074" fill="rgba(20,25,6,255)" />
  <circle r="35" cx="404.11978570140917" cy="512.2838719523229" fill="rgba(206,154,151,251)" />
  <circle r="35" cx="631.954190987929" cy="89.30217360736393" fill="rgba(163,149,178,252)" />
  <circle r="35" cx="799.2009695371643" cy="851.5145267989968" fill="rgba(20,25,6,252)" />
  <circle r="35" cx="266.24781886112874" cy="100.4675679511935" fill="rgba(163,149,178,253)" />
  <circle r="32" cx="744.0126880513222" cy="177.6646302976117" fill="rgba(208,148,150,255)" />
  <circle r="32" cx="877.0888715794908" cy="675.0302262235248" fill="rgba(20,25,6,255)" />
  <circle r="32" cx="476.0276601765373" cy="685.0969858524353" fill="rgba(17,18,4,255)" />
  <circle r="32" cx="361.12186607595606" cy="433.1316074888138" fill="rgba(206,154,151,255)" />
  <circle r="32" cx="581.4156099672409" cy="650.2014917400783" fill="rgba(20,25,6,255)" />
  <circle r="32" cx="132.56386222506327" cy="585.6261826562203" fill="rgba(14,13,10,253)" />
  <circle r="32" cx="733.9136198621761" cy="870.0110257496406" fill="rgba(20,25,6,255)" />
  <circle r="32" cx="679.633778769273" cy="597.1409212107224" fill="rgba(254,192,152,253)" />
  <circle r="32" cx="113.56254977562665" cy="434.3952312138588" fill="rgba(144,130,156,252)" />
  <circle r="32" cx="519.1133401675991" cy="842.5472014097304" fill="rgba(20,25,6,253)" />
  <circle r="32" cx="824.0606577914544" cy="196.15887393432928" fill="rgba(208,148,150,254)" />
  <circle r="32" cx="205.74423917024203" cy="807.499222719974" fill="rgba(20,25,6,252)" />
  <circle r="32" cx="648.7195652933019" cy="883.5977159929485" fill="rgba(20,25,6,253)" />
  <circle r="32" cx="457.317837265564" cy="105.92049384039984" fill="rgba(163,149,178,254)" />
  <circle r="32" cx="324.2494479905784" cy="901.3479101227067" fill="rgba(20,25,6,254)" />
  <circle r="32" cx="200.02647810857852" cy="506.41656946001257" fill="rgba(144,130,156,254)" />
  <circle r="32" cx="852.0383417900941" cy="467.1950470816277" fill="rgba(255,187,117,252)" />
  <circle r="32" cx="183.90937879713564" cy="420.9900791819634" fill="rgba(144,130,156,252)" />
  <circle r="32" cx="863.4284654972238" cy="605.4082874670728" fill="rgba(255,194,133,252)" />
  <circle r="32" cx="270.7297437179295" cy="284.0743666656808" fill="rgba(151,148,180,254)" />
  <circle r="32" cx="961.9639109561602" cy="568.2348646944597" fill="rgba(255,174,114,255)" />
  <circle r="32" cx="472.71764824216143" cy="268.81027770859737" fill="rgba(208,148,150,253)" />
  <circle r="32" cx="329.04777678340406" cy="646.7614708180886" fill="rgba(13,10,7,253)" />
  <circle r="32" cx="468.64828961113943" cy="614.2671273571469" fill="rgba(14,13,10,255)" />
  <circle r="32" cx="421.3441268584067" cy="339.7177192714302" fill="rgba(208,148,150,254)" />
  <circle r="32" cx="501.0549552347115" cy="334.57606842424394" fill="rgba(208,148,150,254)" />
  <circle r="32" cx="673.8413716722894" cy="261.9439351983408" fill="rgba(208,148,150,253)" />
  <circle r="32" cx="545.6328455428189" cy="409.7581825253551" fill="rgba(209,148,150,253)" />
  <circle r="32" cx="908.2169399361719" cy="325.35086549288826" fill="rgba(248,164,140,252)" />
  <circle r="32" cx="621.0568817342523" cy="430.4017401830724" fill="rgba(255,187,117,253)" />
  <circle r="32" cx="706.0471686286307" cy="344.6667737553604" fill="rgba(255,187,117,253)" />
  <circle r="32" cx="257.6479213083377" cy="581.6202695187302" fill="rgba(14,13,10,255)" />
  <circle r="32" cx="503.78062536456633" cy="152.50373439400875" fill="rgba(163,149,178,255)" />
  <circle r="32" cx="287.02237912237604" cy="714.6065042207737" fill="rgba(8,2,0,255)" />
  <circle r="32" cx="224.07045408686804" cy="224.94340350172453" fill="rgba(151,148,180,253)" />
  <circle r="32" cx="229.4612762035698" cy="745.1604266084356" fill="rgba(8,2,0,255)" />
  <circle r="32" cx="812.1733366354084" cy="655.6578054823555" fill="rgba(20,25,6,253)" />
  <circle r="32" cx="938.9108137978317" cy="385.90715402866135" fill="rgba(255,187,117,253)" />
  <circle r="32" cx="198.49699252481824" cy="345.66979618054796" fill="rgba(151,148,180,254)" />
  <circle r="32" cx="586.2284592960256" cy="189.91680779338606" fill="rgba(208,148,150,253)" />
  <circle r="32" cx="313.499766352627" cy="220.04549727601525" fill="rgba(151,148,180,253)" />
  <circle r="32" cx="845.2035771923845" cy="279.25051891898215" fill="rgba(208,148,150,255)" />
  <circle r="32" cx="677.3864453498554" cy="163.82121785698106" fill="rgba(208,148,150,255)" />
  <circle r="32" cx="693.4960830090238" cy="815.1433365459549" fill="rgba(20,25,6,253)" />
  <circle r="32" cx="572.7138878017952" cy="742.7246255068287" fill="rgba(13,18,3,252)" />
  <circle r="32" cx="622.3145517839574" cy="824.6040769211208" fill="rgba(20,25,6,253)" />
  <circle r="32" cx="69.09399791167587" cy="374.7575789841171" fill="rgba(151,148,180,252)" />
  <circle r="32" cx="608.5849693455632" cy="311.7101542862877" fill="rgba(208,148,150,253)" />
  <circle r="32" cx="322.1803998640194" cy="509.1200689015716" fill="rgba(206,154,151,252)" />
  <circle r="32" cx="339.69591024684627" cy="128.33439500419152" fill="rgba(163,149,178,254)" />
  <circle r="32" cx="539.4134443953305" cy="274.4239194503823" fill="rgba(208,148,150,254)" />
  <circle r="32" cx="890.1191324701097" cy="754.8285133596727" fill="rgba(20,25,6,252)" />
  <circle r="32" cx="551.2176517467308" cy="580.5160111604388" fill="rgba(255,187,117,255)" />
  <circle r="32" cx="437.3982456862116" cy="172.24370655836145" fill="rgba(163,149,178,253)" />
  <circle r="32" cx="131.71627106611882" cy="227.4423325616039" fill="rgba(139,147,189,252)" />
  <circle r="32" cx="759.3746070845564" cy="275.4381820154973" fill="rgba(208,148,150,255)" />
  <circle r="32" cx="821.269405620967" cy="369.4784370861371" fill="rgba(255,187,117,253)" />
  <circle r="32" cx="36.42169880183936" cy="484.08033749939364" fill="rgba(144,130,156,252)" />
  <circle r="32" cx="344.39193792219" cy="287.5820589236788" fill="rgba(151,148,180,254)" />
  <circle r="32" cx="867.0222919778295" cy="540.3624061707924" fill="rgba(255,187,117,252)" />
  <circle r="32" cx="223.29147570974382" cy="661.1166551191469" fill="rgba(8,2,0,255)" />
  <circle r="32" cx="469.0244580381872" cy="40.45410429931303" fill="rgba(151,148,185,253)" />
  <circle r="32" cx="750.4473000084232" cy="636.3897677595155" fill="rgba(22,26,6,254)" />
  <circle r="32" cx="767.1046473815408" cy="709.5767330682575" fill="rgba(20,25,6,252)" />
  <circle r="32" cx="253.87152204871407" cy="866.4470057955663" fill="rgba(20,25,6,254)" />
  <circle r="32" cx="921.3921117874751" cy="494.1132102990279" fill="rgba(255,187,117,255)" />
  <circle r="32" cx="603.1574834686676" cy="940.2136124749419" fill="rgba(20,25,6,252)" />
  <circle r="32" cx="469.4799146163105" cy="759.7602294831911" fill="rgba(12,13,3,254)" />
  <circle r="32" cx="403.5417860593661" cy="712.5241654153131" fill="rgba(8,2,0,254)" />
  <circle r="32" cx="351.9171421877901" cy="353.1128037064927" fill="rgba(180,154,171,253)" />
  <circle r="32" cx="399.72191548542327" cy="932.5946692937553" fill="rgba(20,25,6,254)" />
  <circle r="32" cx="146.90547536100843" cy="681.3368539818123" fill="rgba(8,2,0,255)" />
  <circle r="32" cx="711.5806960119371" cy="747.2691957353019" fill="rgba(19,19,6,255)" />
  <circle r="32" cx="395.80705979829986" cy="53.24492463693253" fill="rgba(163,149,178,254)" />
  <circle r="32" cx="66.39871337443455" cy="541.2159021950649" fill="rgba(144,129,152,252)" />
  <circle r="32" cx="272.2733763737116" cy="450.0077688518925" fill="rgba(144,130,156,255)" />
  <circle r="32" cx="652.836269785168" cy="690.5453821611419" fill="rgba(20,25,6,252)" />
  <circle r="32" cx="211.16476599540144" cy="161.4012310189577" fill="rgba(141,143,187,255)" />
  <circle r="32" cx="765.5923352302026" cy="116.2338226888912" fill="rgba(170,149,171,255)" />
  <circle r="32" cx="64.02513599335018" cy="646.1098306294818" fill="rgba(14,13,11,252)" />
  <circle r="32" cx="282.92803129529307" cy="362.5629486389272" fill="rgba(151,148,180,255)" />
  <circle r="30" cx="538.0031039996747" cy="940.3707990713849" fill="rgba(20,25,6,252)" />
  <circle r="30" cx="550.8816536853543" cy="100.1193974853204" fill="rgba(163,149,178,253)" />
  <circle r="30" cx="119.94516857465125" cy="498.6795661062554" fill="rgba(144,130,156,253)" />
  <circle r="30" cx="641.1017401480095" cy="752.7928466419294" fill="rgba(18,21,5,255)" />
  <circle r="30" cx="779.4796753648222" cy="420.86020432993456" fill="rgba(255,187,117,252)" />
  <circle r="30" cx="686.6062599228597" cy="518.3988844411117" fill="rgba(255,187,117,254)" />
  <circle r="30" cx="347.846575918412" cy="577.6382231726808" fill="rgba(21,16,14,253)" />
  <circle r="30" cx="288.6073792903907" cy="791.7204934671729" fill="rgba(20,25,6,253)" />
  <circle r="25" cx="958.1869797223657" cy="440.3128631777902" fill="rgba(255,187,117,255)" />
  <circle r="25" cx="952.9871112183977" cy="638.0254466402127" fill="rgba(218,182,125,252)" />
  <circle r="25" cx="528.3449419285145" cy="34.00862030987551" fill="rgba(155,148,180,254)" />
  <circle r="25" cx="339.8282958371649" cy="740.2933818384402" fill="rgba(8,2,0,253)" />
  <circle r="25" cx="194.25042749210033" cy="599.7534997629466" fill="rgba(14,13,10,253)" />
  <circle r="25" cx="287.7345827234869" cy="162.18337410030466" fill="rgba(163,149,178,255)" />
  <circle r="25" cx="799.2203265919123" cy="587.2431044358701" fill="rgba(254,177,123,254)" />
  <circle r="25" cx="896.977303396544" cy="252.3033411005181" fill="rgba(219,159,142,255)" />
  <circle r="25" cx="577.8401942233619" cy="883.6648967483413" fill="rgba(20,25,6,255)" />
  <circle r="25" cx="874.9985174166927" cy="411.3399020031722" fill="rgba(255,187,117,254)" />
  <circle r="25" cx="626.1461760582138" cy="557.7598583674678" fill="rgba(255,187,117,252)" />
  <circle r="25" cx="633.9377464958216" cy="370.89928846820936" fill="rgba(255,187,117,252)" />
  <circle r="21" cx="423.0641672828531" cy="580.5946941100258" fill="rgba(212,154,138,255)" />
  <circle r="21" cx="675.3056774182197" cy="933.3686047562128" fill="rgba(20,25,6,252)" />
  <circle r="21" cx="406.87564370032936" cy="624.4327883888811" fill="rgba(14,13,10,253)" />
  <circle r="21" cx="375.3149464197997" cy="875.7404665707661" fill="rgba(20,25,6,253)" />
  <circle r="21" cx="198.24569875838588" cy="869.758067874547" fill="rgba(20,25,6,254)" />
  <circle r="21" cx="405.1905448520596" cy="398.83913992069336" fill="rgba(206,154,151,254)" />
  <circle r="21" cx="407.49514662770923" cy="125.8387264783569" fill="rgba(163,149,178,252)" />
  <circle r="21" cx="502.8717911478391" cy="978.0314911106632" fill="rgba(20,25,6,255)" />
  <circle r="21" cx="517.499906252131" cy="721.2925991967213" fill="rgba(20,25,6,255)" />
  <circle r="21" cx="716.5324710473044" cy="89.41023780019565" fill="rgba(163,149,178,255)" />
  <circle r="21" cx="506.01451575567876" cy="214.1458886352063" fill="rgba(208,148,150,253)" />
  <circle r="21" cx="609.7566193066339" cy="241.51254907206908" fill="rgba(208,148,150,252)" />
  <circle r="21" cx="398.3977537671138" cy="283.0982752221376" fill="rgba(152,148,180,253)" />
  <circle r="21" cx="759.7217577348862" cy="807.2544259982948" fill="rgba(20,25,6,253)" />
  <circle r="21" cx="779.1259540205148" cy="325.5008189344707" fill="rgba(209,148,150,253)" />
  <circle r="21" cx="340.1446023072927" cy="52.07843407816853" fill="rgba(163,149,178,250)" />
  <circle r="21" cx="152.57391887657215" cy="822.7934149235143" fill="rgba(20,25,6,252)" />
  <circle r="21" cx="551.1517938441295" cy="796.7773982022867" fill="rgba(20,25,6,251)" />
  <circle r="21" cx="767.6051455404407" cy="370.4419160215198" fill="rgba(255,187,117,255)" />
  <circle r="21" cx="579.6473274645273" cy="367.48192124723477" fill="rgba(208,148,150,254)" />
  <circle r="21" cx="390.3006027463585" cy="765.1540359994837" fill="rgba(13,16,2,255)" />
  <circle r="21" cx="442.25275128322653" cy="456.95044914521947" fill="rgba(206,154,151,253)" />
  <circle r="21" cx="534.5622865199555" cy="680.0602308533997" fill="rgba(20,25,6,253)" />
  <circle r="21" cx="186.90216656630574" cy="282.48805783787947" fill="rgba(151,148,180,255)" />
  <circle r="21" cx="90.62374527064095" cy="271.8263684870086" fill="rgba(144,147,185,253)" />
  <circle r="21" cx="718.2368618810686" cy="681.7017524288756" fill="rgba(20,25,6,253)" />
  <circle r="21" cx="931.7909442830723" cy="683.0575837020406" fill="rgba(20,25,6,254)" />
  <circle r="21" cx="637.717678605273" cy="631.5979845251098" fill="rgba(21,24,7,254)" />
  <circle r="21" cx="583.6137174281313" cy="44.01099532651226" fill="rgba(163,149,178,255)" />
  <circle r="21" cx="502.88656703845544" cy="447.31908129553125" fill="rgba(255,181,124,255)" />
  <circle r="21" cx="161.79420668563134" cy="182.90338867259734" fill="rgba(136,144,186,255)" />
  <circle r="21" cx="87.3513458643527" cy="696.5538152301754" fill="rgba(8,2,0,255)" />
  <circle r="21" cx="639.2585805560457" cy="209.5196058164707" fill="rgba(208,148,150,253)" />
  <circle r="21" cx="28.541760213875868" cy="429.91301805597476" fill="rgba(144,130,156,254)" />
  <circle r="21" cx="259.68782538419" cy="526.3226343218811" fill="rgba(206,154,151,254)" />
  <circle r="21" cx="139.37854261208125" cy="383.6105093138134" fill="rgba(151,148,180,254)" />
  <circle r="21" cx="381.2008917829863" cy="658.8816806221226" fill="rgba(8,2,0,253)" />
  <circle r="21" cx="653.9895613420904" cy="478.35391956012785" fill="rgba(255,187,117,252)" />
  <circle r="21" cx="276.7385650571947" cy="659.3715635025742" fill="rgba(8,2,0,255)" />
  <circle r="21" cx="42.970232653462226" cy="594.8218006103402" fill="rgba(14,13,10,255)" />
  <circle r="21" cx="794.8367934406922" cy="473.6694133131613" fill="rgba(255,187,117,254)" />
  <circle r="16" cx="809.8459980500189" cy="147.5433542363013" fill="rgba(193,144,158,254)" />
  <circle r="16" cx="351.6122612662121" cy="956.3684994904952" fill="rgba(20,25,6,255)" />
  <circle r="16" cx="834.69631788984" cy="702.780833868874" fill="rgba(20,25,6,253)" />
  <circle r="16" cx="601.9367570428852" cy="596.1350192758423" fill="rgba(255,183,127,253)" />
  <circle r="16" cx="909.1429016571069" cy="588.3672260573979" fill="rgba(255,181,120,254)" />
  <circle r="16" cx="820.4583891997773" cy="504.77490448008865" fill="rgba(255,187,117,252)" />
  <circle r="16" cx="617.8575026399479" cy="148.21682097191538" fill="rgba(164,149,177,254)" />
  <circle r="16" cx="665.1863376098355" cy="401.96436933233485" fill="rgba(255,187,117,253)" />
  <circle r="16" cx="442.6460087961397" cy="223.24586202325605" fill="rgba(208,148,150,254)" />
  <circle r="16" cx="178.19347397025484" cy="731.6702769918863" fill="rgba(8,2,0,253)" />
  <circle r="16" cx="795.3856584106783" cy="237.33317753166668" fill="rgba(208,148,150,253)" />
  <circle r="16" cx="506.42515882449055" cy="556.0465424999137" fill="rgba(255,187,117,251)" />
  <circle r="16" cx="969.4718946265483" cy="504.5624926386516" fill="rgba(255,187,117,254)" />
  <circle r="16" cx="223.05819443853738" cy="451.656370859154" fill="rgba(144,130,156,254)" />
  <circle r="16" cx="64.42167445981303" cy="301.81292779029604" fill="rgba(151,148,180,253)" />
  <circle r="16" cx="235.83784236615853" cy="389.4740828297678" fill="rgba(161,143,168,252)" />
  <circle r="16" cx="448.2101032204077" cy="548.8123191752255" fill="rgba(206,144,131,255)" />
  <circle r="16" cx="721.8514993949908" cy="921.4372482148078" fill="rgba(20,25,6,252)" />
  <circle r="16" cx="423.7508936492469" cy="664.4232299824059" fill="rgba(8,2,0,255)" />
  <circle r="16" cx="715.0899638476461" cy="219.75958556416484" fill="rgba(208,148,150,253)" />
  <circle r="16" cx="675.9668975469037" cy="54.62944479049021" fill="rgba(163,149,178,253)" />
  <circle r="16" cx="910.0413400222817" cy="445.62704471863765" fill="rgba(255,187,117,252)" />
  <circle r="16" cx="869.7562939826637" cy="357.0862177636245" fill="rgba(255,187,117,255)" />
  <circle r="16" cx="80.97901941208882" cy="592.1372419496682" fill="rgba(14,13,10,253)" />
  <circle r="16" cx="270.20979217216905" cy="913.1619317791512" fill="rgba(14,19,6,253)" />
  <circle r="16" cx="862.4332916320484" cy="794.6124379906572" fill="rgba(20,25,6,254)" />
  <circle r="16" cx="153.38183127807025" cy="537.7856381654788" fill="rgba(159,132,149,253)" />
  <circle r="16" cx="555.0474704498073" cy="462.58290268721964" fill="rgba(235,165,143,253)" />
  <circle r="16" cx="340.98822421232774" cy="694.7406205240604" fill="rgba(8,2,0,253)" />
  <circle r="16" cx="434.2532972736158" cy="973.9018429931743" fill="rgba(11,14,5,255)" />
  <circle r="16" cx="830.1874589810644" cy="418.5631894047918" fill="rgba(255,187,117,255)" />
  <circle r="16" cx="711.6731252783588" cy="292.69725453390913" fill="rgba(208,148,150,252)" />
  <circle r="16" cx="320.0943832450317" cy="402.1683687925294" fill="rgba(206,154,151,253)" />
  <circle r="16" cx="520.17294161306" cy="627.7145381278871" fill="rgba(18,19,8,255)" />
  <circle r="16" cx="914.9500611452813" cy="550.3442181745005" fill="rgba(255,172,117,252)" />
  <circle r="16" cx="295.8617423573124" cy="838.7084454813331" fill="rgba(20,25,6,255)" />
  <circle r="16" cx="537.9658739664985" cy="503.91492683349503" fill="rgba(255,187,117,253)" />
  <circle r="16" cx="549.1479095090758" cy="340.10882480254435" fill="rgba(208,148,150,253)" />
  <circle r="16" cx="682.6797621937425" cy="212.87365663766354" fill="rgba(208,148,150,253)" />
  <circle r="16" cx="732.7791941779627" cy="568.5583891636854" fill="rgba(255,187,117,252)" />
  <circle r="16" cx="312.06481553310454" cy="323.7638308247692" fill="rgba(151,148,180,254)" />
  <circle r="16" cx="875.5501086181165" cy="207.33971617897828" fill="rgba(209,148,150,253)" />
  <circle r="16" cx="342.93396920062247" cy="176.85269284613747" fill="rgba(163,149,178,255)" />
  <circle r="16" cx="510.85092205128797" cy="787.372786532623" fill="rgba(20,25,6,255)" />
  <circle r="16" cx="163.54473216359582" cy="632.4226869823231" fill="rgba(14,13,10,251)" />
  <circle r="16" cx="603.9406096449923" cy="695.9936246203131" fill="rgba(20,25,6,254)" />
  <circle r="16" cx="626.9120981657912" cy="34.38322066970658" fill="rgba(163,149,178,252)" />
  <circle r="16" cx="758.9590034035538" cy="767.8277885637028" fill="rgba(20,25,6,255)" />
  <circle r="16" cx="198.34259875585337" cy="556.7698816892847" fill="rgba(170,133,139,253)" />
  <circle r="16" cx="709.1312366652252" cy="393.90987338562553" fill="rgba(255,187,117,255)" />
  <circle r="16" cx="243.1086831889068" cy="326.35335162182156" fill="rgba(151,148,180,255)" />
  <circle r="16" cx="819.1287919340853" cy="548.785164518958" fill="rgba(255,187,117,255)" />
  <circle r="16" cx="300.0643302643554" cy="605.6771894428886" fill="rgba(14,13,10,255)" />
  <circle r="16" cx="516.9973948396362" cy="892.0259213455523" fill="rgba(20,25,6,253)" />
  <circle r="16" cx="688.9853789851871" cy="651.9399436048379" fill="rgba(20,25,6,253)" />
  <circle r="16" cx="509.13070269836805" cy="74.52122867240261" fill="rgba(163,149,178,253)" />
  <circle r="16" cx="481.8370363452218" cy="882.1253276278819" fill="rgba(20,25,6,253)" />
  <circle r="16" cx="221.46366968873403" cy="301.59807274698414" fill="rgba(151,148,180,253)" />
  <circle r="16" cx="680.1885854524004" cy="114.41662058699319" fill="rgba(163,149,178,254)" />
  <circle r="16" cx="575.5275869913746" cy="837.4762822114869" fill="rgba(20,25,6,252)" />
  <circle r="16" cx="905.6098072897435" cy="633.0003548037542" fill="rgba(199,162,112,255)" />
  <circle r="16" cx="658.0922089209357" cy="325.1669777427228" fill="rgba(208,148,150,253)" />
  <circle r="16" cx="113.24676002971066" cy="641.2961416379469" fill="rgba(14,13,10,251)" />
  <circle r="16" cx="200.1793543654319" cy="704.126840144739" fill="rgba(8,2,0,254)" />
  <circle r="16" cx="715.9407205910987" cy="129.78216670440958" fill="rgba(163,149,178,253)" />
  <circle r="16" cx="754.7801840219493" cy="472.93992846392905" fill="rgba(255,187,117,254)" />
  <circle r="16" cx="374.6226367374097" cy="164.5470009324355" fill="rgba(163,149,178,253)" />
  <circle r="16" cx="482.33038535065714" cy="807.5916588947467" fill="rgba(20,25,6,254)" />
  <circle r="16" cx="547.2938221073854" cy="219.36739760084726" fill="rgba(208,148,150,253)" />
  <circle r="13" cx="411.1580843916813" cy="793.2944254166179" fill="rgba(20,25,6,254)" />
  <circle r="13" cx="379.4815579721431" cy="99.30801732208525" fill="rgba(163,149,178,254)" />
  <circle r="13" cx="303.5310478593819" cy="943.4673195198355" fill="rgba(20,25,6,255)" />
  <circle r="13" cx="361.6060765060421" cy="478.8258412861996" fill="rgba(206,154,151,253)" />
  <circle r="13" cx="392.48681836550224" cy="562.2343650190969" fill="rgba(192,140,132,255)" />
  <circle r="13" cx="310.044164279254" cy="70.58661264278459" fill="rgba(163,149,178,251)" />
  <circle r="13" cx="523.9019377118865" cy="474.9691961797971" fill="rgba(235,161,146,254)" />
  <circle r="13" cx="642.8501309381372" cy="514.8976957516504" fill="rgba(255,187,117,255)" />
  <circle r="13" cx="801.2048766776727" cy="297.5589722284862" fill="rgba(208,148,150,253)" />
  <circle r="13" cx="571.758071435887" cy="695.2898986101161" fill="rgba(20,25,6,253)" />
  <circle r="13" cx="842.6044902656735" cy="823.7671476977779" fill="rgba(20,25,6,254)" />
  <circle r="13" cx="749.4886408009919" cy="227.61672305544658" fill="rgba(208,148,150,253)" />
  <circle r="13" cx="857.091206408367" cy="230.40049364110652" fill="rgba(208,148,150,251)" />
  <circle r="13" cx="422.8389927427715" cy="892.4396188406773" fill="rgba(20,25,6,253)" />
  <circle r="13" cx="775.9235824832234" cy="900.5974141260905" fill="rgba(20,25,6,253)" />
  <circle r="13" cx="389.8137508774536" cy="593.425488797397" fill="rgba(204,149,136,252)" />
  <circle r="13" cx="210.31081200928492" cy="113.12279404050511" fill="rgba(138,144,187,250)" />
  <circle r="13" cx="256.26142324595037" cy="192.84736237927643" fill="rgba(151,148,180,253)" />
  <circle r="13" cx="928.2690808802238" cy="718.5208703608644" fill="rgba(20,25,6,254)" />
  <circle r="13" cx="407.26538690424667" cy="448.31821101491573" fill="rgba(206,154,151,253)" />
  <circle r="13" cx="160.50779086728596" cy="470.4016003635508" fill="rgba(144,130,156,253)" />
  <circle r="13" cx="423.48170800011536" cy="257.15654636668523" fill="rgba(153,148,180,254)" />
  <circle r="13" cx="593.6627702255764" cy="129.219352026409" fill="rgba(163,149,178,255)" />
  <circle r="13" cx="697.5343299106916" cy="898.5814131694577" fill="rgba(20,25,6,253)" />
  <circle r="13" cx="932.993887340319" cy="286.92940136662014" fill="rgba(237,164,139,250)" />
  <circle r="13" cx="380.95775995732237" cy="314.69982174295666" fill="rgba(197,148,156,253)" />
  <circle r="13" cx="297.85962558182064" cy="553.7664855834126" fill="rgba(181,135,138,252)" />
  <circle r="13" cx="265.69190062626456" cy="626.7142218620219" fill="rgba(10,7,4,253)" />
  <circle r="13" cx="538.8802933622106" cy="984.2967523472835" fill="rgba(20,25,6,253)" />
  <circle r="13" cx="175.17980944177543" cy="247.70060828646965" fill="rgba(151,148,180,252)" />
  <circle r="13" cx="829.0460855275525" cy="323.8533143094408" fill="rgba(235,165,140,254)" />
  <circle r="13" cx="150.10615130016362" cy="273.0852594383509" fill="rgba(151,148,180,253)" />
  <circle r="13" cx="570.2217686937977" cy="142.95980376797917" fill="rgba(163,149,178,254)" />
  <circle r="13" cx="653.7907678842743" cy="961.7056025981823" fill="rgba(20,25,6,254)" />
  <circle r="13" cx="862.0739689132093" cy="719.1247011495749" fill="rgba(20,25,6,255)" />
  <circle r="13" cx="63.58472320847766" cy="436.7123487557775" fill="rgba(144,130,156,255)" />
  <circle r="13" cx="180.92539391130484" cy="765.0812250074447" fill="rgba(12,22,4,251)" />
  <circle r="13" cx="600.7049437205086" cy="782.3548208293887" fill="rgba(20,25,6,255)" />
  <circle r="13" cx="502.74726534497574" cy="106.8163923209616" fill="rgba(163,149,178,252)" />
  <circle r="13" cx="737.6257501751422" cy="408.9726835553955" fill="rgba(255,187,117,253)" />
  <circle r="13" cx="237.80876051890706" cy="419.90015929825813" fill="rgba(144,130,156,251)" />
  <circle r="13" cx="18.72004142507374" cy="551.2116373162035" fill="rgba(146,131,152,254)" />
  <circle r="13" cx="955.0124360062309" cy="332.58127647096546" fill="rgba(253,168,139,253)" />
  <circle r="13" cx="369.5337194932291" cy="622.6041232323909" fill="rgba(14,13,10,255)" />
  <circle r="13" cx="81.41639038008293" cy="467.2754742299489" fill="rgba(144,130,156,252)" />
  <circle r="13" cx="476.96211826842045" cy="560.3090459084018" fill="rgba(255,187,117,255)" />
  <circle r="13" cx="122.9011358514567" cy="799.5943137172029" fill="rgba(12,20,10,255)" />
  <circle r="13" cx="704.8089738316119" cy="557.9384394030491" fill="rgba(255,187,117,252)" />
  <circle r="13" cx="457.76424953779866" cy="311.78951194567526" fill="rgba(208,148,150,254)" />
  <circle r="13" cx="319.2540596941073" cy="458.7606896809174" fill="rgba(206,154,151,254)" />
  <circle r="13" cx="249.95976829734127" cy="491.735698898063" fill="rgba(144,130,156,253)" />
  <circle r="13" cx="78.12543920979331" cy="732.0323837907009" fill="rgba(8,2,0,252)" />
  <circle r="13" cx="161.5049811396084" cy="789.0074626643925" fill="rgba(18,25,8,255)" />
  <circle r="13" cx="538.11686621094" cy="184.59123844241083" fill="rgba(193,149,160,253)" />
  <circle r="13" cx="177.9741203852402" cy="217.4152302849706" fill="rgba(149,147,182,254)" />
  <circle r="13" cx="473.6915264975772" cy="201.6316629449413" fill="rgba(206,148,152,253)" />
  <circle r="13" cx="576.3481654787179" cy="976.9111505903335" fill="rgba(20,25,6,255)" />
  <circle r="13" cx="529.5312923460067" cy="537.1985019271447" fill="rgba(255,187,117,255)" />
  <circle r="13" cx="42.52257067286267" cy="337.73635432478164" fill="rgba(151,148,180,251)" />
  <circle r="13" cx="530.0069293859017" cy="764.8556262106414" fill="rgba(18,23,4,254)" />
  <circle r="13" cx="727.361717385296" cy="495.94707884637484" fill="rgba(255,187,117,253)" />
  <circle r="13" cx="466.7824455953543" cy="984.9697061548262" fill="rgba(20,25,6,252)" />
  <circle r="13" cx="573.6929803824611" cy="234.5349210518174" fill="rgba(208,148,150,253)" />
  <circle r="13" cx="861.0520340215918" cy="322.69986207390616" fill="rgba(242,164,138,253)" />
  <circle r="13" cx="357.2672258086944" cy="83.17144681173542" fill="rgba(163,149,178,253)" />
  <circle r="13" cx="751.2619841081164" cy="914.8683833706652" fill="rgba(20,25,6,252)" />
  <circle r="13" cx="841.4426359595898" cy="153.53349678824418" fill="rgba(205,147,154,251)" />
  <circle r="13" cx="984.5652130786323" cy="474.5973627650783" fill="rgba(255,187,117,253)" />
  <circle r="13" cx="760.9986470286888" cy="580.8242587770059" fill="rgba(251,175,115,254)" />
  <circle r="13" cx="221.24234121212336" cy="898.9192347339841" fill="rgba(13,20,7,254)" />
  <circle r="13" cx="780.1261075176699" cy="211.25626958066914" fill="rgba(208,148,150,255)" />
  <circle r="13" cx="112.8245344373978" cy="541.8580083890336" fill="rgba(150,132,150,254)" />
  <circle r="13" cx="53.18649770715039" cy="690.4363941408218" fill="rgba(8,2,0,252)" />
  <circle r="13" cx="255.08007241803918" cy="821.0137076495301" fill="rgba(20,25,6,253)" />
  <circle r="13" cx="219.64636940472406" cy="270.6805543799697" fill="rgba(151,148,180,252)" />
  <circle r="13" cx="77.47033825595489" cy="329.19378659199293" fill="rgba(151,148,180,253)" />
  <circle r="13" cx="269.3376232979499" cy="234.41335371583628" fill="rgba(151,148,180,255)" />
  <circle r="13" cx="229.0338485084765" cy="545.4422977684914" fill="rgba(195,148,148,252)" />
  <circle r="13" cx="632.1593320950842" cy="597.3845564083979" fill="rgba(244,183,146,255)" />
  <circle r="13" cx="585.1266038094807" cy="269.8813710352294" fill="rgba(208,148,150,253)" />
  <circle r="13" cx="166.54127589924718" cy="147.6282344283872" fill="rgba(136,143,187,250)" />
  <circle r="13" cx="321.67612565318825" cy="855.1674279043422" fill="rgba(20,25,6,254)" />
  <circle r="13" cx="720.9572274538" cy="248.90747205004283" fill="rgba(208,148,150,253)" />
  <circle r="13" cx="261.4160109931046" cy="404.72677201757455" fill="rgba(144,130,156,252)" />
  <circle r="13" cx="435.39476091065904" cy="295.8302729976966" fill="rgba(208,148,150,253)" />
  <circle r="13" cx="986.0280124568453" cy="529.611394949631" fill="rgba(255,187,117,252)" />
  <circle r="13" cx="14.881599350058597" cy="525.019049939551" fill="rgba(141,130,160,251)" />
  <circle r="13" cx="315.2433921137935" cy="431.9426005532736" fill="rgba(163,137,154,253)" />
  <circle r="13" cx="27.48031037662026" cy="394.9127322494398" fill="rgba(151,148,180,252)" />
  <circle r="13" cx="680.7931500613872" cy="84.40622364571868" fill="rgba(163,149,178,255)" />
  <circle r="13" cx="427.4042764092615" cy="20.438150163742197" fill="rgba(154,147,182,250)" />
  <circle r="13" cx="628.7329349583905" cy="270.96348340232987" fill="rgba(208,148,150,252)" />
  <circle r="13" cx="504.675509576144" cy="586.0741564028885" fill="rgba(255,178,123,253)" />
  <circle r="13" cx="549.0341266147531" cy="160.44707707101512" fill="rgba(166,149,176,255)" />
  <circle r="13" cx="689.1041845030278" cy="862.6159292659937" fill="rgba(20,25,6,254)" />
  <circle r="13" cx="277.8649130013556" cy="496.9514279835226" fill="rgba(206,154,151,255)" />
  <circle r="13" cx="424.2454564151976" cy="755.2296490249278" fill="rgba(8,8,1,255)" />
  <circle r="13" cx="895.174483615579" cy="371.9796533367852" fill="rgba(255,187,117,251)" />
  <circle r="13" cx="744.2880163928924" cy="320.19429275820335" fill="rgba(218,156,145,253)" />
  <circle r="13" cx="632.2146189463715" cy="175.3933106641026" fill="rgba(208,148,150,255)" />
  <circle r="13" cx="361.4030786353876" cy="536.0050844307957" fill="rgba(203,151,150,253)" />
  <circle r="13" cx="438.24159621481834" cy="792.7871444973435" fill="rgba(20,25,6,254)" />
  <circle r="13" cx="726.5373330088356" cy="597.3295839847383" fill="rgba(255,194,139,254)" />
  <circle r="13" cx="512.1461681166054" cy="378.6275453449412" fill="rgba(208,148,150,253)" />
  <circle r="13" cx="167.17439235641592" cy="854.8598306477301" fill="rgba(20,25,6,252)" />
  <circle r="13" cx="425.8262968957233" cy="426.4738899087104" fill="rgba(206,154,151,254)" />
  <circle r="13" cx="577.4581674340143" cy="443.0705434443177" fill="rgba(255,187,117,254)" />
</svg>
